<svg xmlns="http://www.w3.org/2000/svg" viewBox="0 0 750 260"><g fill="none" stroke-width="2"><path stroke="#a1c3f9" d="M198.8 135.1c33.47-.78 54.61-28.39 50.13-61.27a1 1 0 0 0-.99-.86l-50.94.02a1 1 0 0 0-1 1V87.5a1 1 0 0 0 1 1h35.43a1 1 0 0 1 .99 1.17q-3.86 22.51-25.68 28.34-13.29 3.55-25.73-.94c-38.69-13.97-35.49-71.15 5.05-80.09q19.84-4.38 36.67 9.39a1 .99 42.3 0 0 1.34-.06l9.35-9.35a1.01 1 44 0 0-.03-1.44q-14.78-13.77-34.21-15.17c-34.33-2.47-65.95 27.05-62.44 62.15 3.15 31.43 29.85 53.32 61.06 52.6" vector-effect="non-scaling-stroke"/><path stroke="#9bd3ab" d="M512.68 25.03a.27.27 0 0 0-.27-.27h-15.06a.27.27 0 0 0-.27.27v107.44a.27.27 0 0 0 .27.27h15.06a.27.27 0 0 0 .27-.27V25.03" vector-effect="non-scaling-stroke"/><path stroke="#f3a29b" d="M330.18 98.15a37.05 37.05 0 0 0-37.05-37.05 37.05 37.05 0 0 0-37.05 37.05 37.05 37.05 0 0 0 37.05 37.05 37.05 37.05 0 0 0 37.05-37.05" vector-effect="non-scaling-stroke"/><path stroke="#fdde84" d="M410.54 98.16a37.18 37.18 0 0 0-37.18-37.18 37.18 37.18 0 0 0-37.18 37.18 37.18 37.18 0 0 0 37.18 37.18 37.18 37.18 0 0 0 37.18-37.18" vector-effect="non-scaling-stroke"/><path stroke="#a1c3f9" d="M472.04 128.67q.22 6.25-.79 10.34c-4.85 19.65-29.31 19.38-37.35 2.6a1.01 1 65.4 0 0-1.29-.49l-12.24 5.14a1 .99-24.5 0 0-.51 1.36q5.24 10.6 14.98 16.11c9.68 5.48 22.37 6.02 32.58 1.69 13.31-5.64 19.6-19.06 19.78-33.17q.35-26.04.01-67.76a1 1 0 0 0-1-.99h-13.16a1 1 0 0 0-1 .98l-.05 3.24q-.03 2.24-1.68.72-6.86-6.32-16.39-7.13c-15.59-1.33-31.07 10.6-35.7 25.38-7.12 22.75 9.46 49.4 34.53 48.36q9.73-.4 17.64-7.11 1.57-1.33 1.64.73" vector-effect="non-scaling-stroke"/><path stroke="#f3a29b" d="m539.53 108.92 47.53-19.66a1 1 0 0 0 .56-1.26q-3.19-8.88-8.35-15.02c-18.86-22.46-52.32-10.72-58.52 16.25-5.5 23.96 11.92 46.18 36.44 45.75q17.37-.3 29.42-15.17a1 .99-53.8 0 0-.22-1.46l-10.85-7.24a1 1 0 0 0-1.36.24q-8.62 11.72-22.67 8.89-8.4-1.69-12.49-9.95a1.01 1 65.6 0 1 .51-1.37" vector-effect="non-scaling-stroke"/><path stroke="#a7a6a7" d="M200.22 168.54q1.96-.05 3.93-.06c7.28-.03 7.25 8.15 8.78 13.32a1 .99 84.7 0 0 .85.71l1.14.12a1 1 0 0 0 1.07-1.28q-1.37-4.59-1.56-5.6-.84-4.62-4.21-7.78a.99.99 0 0 1 .14-1.56q1.94-1.27 3.06-2.47 2.98-3.21 1.56-7.64c-2.32-7.23-11.89-6.44-17.95-5.77a1 .99 87.1 0 0-.89.99l.08 30.11a1 1 0 0 0 1.07 1l.94-.07a1.01 1-1.9 0 0 .93-.99l.09-12.04a1 .99 89.7 0 1 .97-.99m74.62-16.06a1.97 1.97 0 0 0-1.97-1.97 1.97 1.97 0 0 0-1.97 1.97 1.97 1.97 0 0 0 1.97 1.97 1.97 1.97 0 0 0 1.97-1.97m-44.78 28.21q-6.12-1.99-5.66-8.23a1.01 1-88.1 0 1 .99-.93l14.51-.04a1 1 0 0 0 .99-.99q.09-4.68-1.93-7.45-3.5-4.8-8.63-3.7c-13.04 2.79-12.73 23.93 2.61 23.56 1.24-.03 8.07-.26 6-2.33a1.01 1 61.8 0 0-.9-.28q-5.71 1.12-7.98.39m55.22-9.17 14.9-.03a1 .99-89.4 0 0 .99-.98q.12-5.3-2.95-8.47-3.53-3.64-8.06-2.67c-12.64 2.7-12.1 23.1 2.61 23.86q1.21.06 5.91-1.01a.98.98 0 0 0 .67-.52c.77-1.5-.82-1.53-1.78-1.32-6.17 1.36-13.46-.07-13.29-7.88a1.01 1 .3 0 1 1-.98m67.81 2.9c2.88 7.16-4.9 6.94-9.75 5.64a.64.63-64.5 0 0-.69.25c-1.85 2.64 11.73 5.46 13.69-2.76 1.65-6.93-6.67-6.4-9.79-10.05-1.84-2.16-.64-5.11 2.09-5.8q2.84-.71 5.72.48a.65.64 22.7 0 0 .84-.34l.13-.31a1 1 0 0 0-.56-1.32q-8.43-3.28-12.06 4.82a1.02 1.01 50.6 0 0-.06.62c.98 4.52 4.99 5.72 9.96 8.25a1 .99 2.7 0 1 .48.52m-98.3 4.65-6.37-18.65a1 1 0 0 0-.95-.68l-1.19.01a1 1 0 0 0-.93 1.36q3.86 9.9 7.57 19.88c1.26 3.4 3.81 1.69 4.76-.75q3.57-9.11 7.2-18.25c.68-1.73.36-3.1-1.92-2.16a.99.96-2.4 0 0-.56.59l-6.44 18.41a.64.62-2.5 0 1-.36.38l-.27.11a.41.41 0 0 1-.54-.25m19.96-19.01a.26.26 0 0 0-.26-.26h-2.98a.26.26 0 0 0-.26.26v22.18a.26.26 0 0 0 .26.26h2.98a.26.26 0 0 0 .26-.26v-22.18m47.66 4.82q.17.31.32.88 2.07 7.74 4.77 15.29c.58 1.64 1.75 2.26 3.32 1.29a.98.96 83.5 0 0 .43-.55l6.62-20.72a1.01 1.01 0 0 0-.92-1.31l-.83-.03a1 1 0 0 0-1 .74l-4.83 17.58q-.74 2.68-1.54.02-2.54-8.46-5.17-16.89-.76-2.44-2.92-1.14a.98.96 83.5 0 0-.43.55l-5.81 18.15a.65.64 12.3 0 1-.7.44c-.52-.08-4.73-16.79-5.3-18.71a1 1 0 0 0-.96-.72h-.89a1.01 1 81.8 0 0-.96 1.29l6.24 20.98a1 1 0 0 0 1.09.71l1.56-.21a1.02 1.02 0 0 0 .82-.68l5.63-16.82q.57-1.71 1.46-.14" vector-effect="non-scaling-stroke"/><path stroke="#fdde84" d="M247.95 242.79c9.68 9.05 20.56-.85 22.52-11.05 1.98-10.26 1.76-30.09-12.23-31.53-20.35-2.1-20.73 32.83-10.29 42.58m-46.75-27.01 1.27-8.92a1 1 0 0 1 .99-.86h15.03a1 1 0 0 0 1-.97l.09-3.28a1.01 1 .8 0 0-1.01-1.03l-19.69.09a1 1 0 0 0-.98.87L195.32 221a1 1 0 0 0 1.19 1.11c22.75-4.44 22.19 21.63 4.38 18.48q-3.03-.54-6.08-1.47a.99.99 0 0 0-1.27.77l-.49 2.63a1.01 1 18.7 0 0 .54 1.08q12.05 5.97 21.41-1.68c8.52-6.95 6.63-21.34-4.5-24.19q-3.43-.88-8.29-.81a1.01 1 3.7 0 1-1.01-1.14" vector-effect="non-scaling-stroke"/><path stroke="#fcea86" d="M414.72 217.62a.5.5 0 0 1-.48-.35l-5.13-15.92a.5.5 0 0 0-.96 0l-5.13 15.92a.5.5 0 0 1-.48.35l-16.74-.04a.5.5 0 0 0-.29.91l13.56 9.81a.5.5 0 0 1 .18.56l-5.2 15.9a.5.5 0 0 0 .77.56l13.52-9.86a.5.5 0 0 1 .58 0l13.52 9.86a.5.5 0 0 0 .77-.56l-5.2-15.9a.5.5 0 0 1 .18-.56l13.56-9.81a.5.5 0 0 0-.29-.91l-16.74.04m19.15-.12a.37.37 0 0 0-.22.67l13.97 10.19a.37.37 0 0 1 .13.42l-5.52 16.34a.37.37 0 0 0 .57.42l14.08-10.34a.37.37 0 0 1 .44 0l13.78 10.27a.37.37 0 0 0 .58-.41l-5.24-16.31a.37.37 0 0 1 .13-.41l14.13-10.44a.37.37 0 0 1 .44 0l14.18 10.39a.37.37 0 0 1 .14.42l-5.38 16.35a.37.37 0 0 0 .57.41l13.86-10.12a.37.37 0 0 1 .43-.01l13.89 9.79a.37.37 0 0 0 .57-.41l-5.28-15.96a.37.37 0 0 1 .14-.42l13.48-9.89a.37.37 0 0 0-.21-.67l-16.89-.35a.37.37 0 0 1-.35-.26l-5.03-16.23a.37.37 0 0 0-.71-.01l-5.52 16.32a.37.37 0 0 1-.34.25l-35.61.12a.37.37 0 0 1-.35-.26l-5.34-16.44a.37.37 0 0 0-.7 0l-5.33 16.32a.37.37 0 0 1-.35.26h-17.14m-97.95.35a.51.51 0 0 1 .61 0l14.26 10.47a.51.51 0 0 1 .18.57l-5.36 15.81a.51.51 0 0 0 .79.58l13.57-10a.51.51 0 0 1 .6 0l13.45 9.89a.51.51 0 0 0 .79-.56l-5.04-15.9a.51.51 0 0 1 .18-.57l13.21-9.7a.51.51 0 0 0-.3-.92l-16.5-.03a.51.51 0 0 1-.48-.35l-5.12-15.91a.51.51 0 0 0-.97 0l-5.17 15.95a.51.51 0 0 1-.48.35l-35.69.01a.51.51 0 0 1-.48-.36l-5-15.85a.51.51 0 0 0-.97-.01l-5.34 15.82a.51.51 0 0 1-.49.35l-16.44.01a.51.51 0 0 0-.3.92l13.45 9.88a.51.51 0 0 1 .18.57l-5.31 15.75a.51.51 0 0 0 .79.57l13.49-9.86a.51.51 0 0 1 .6 0l13.65 9.9a.51.51 0 0 0 .78-.57l-5.21-15.72a.51.51 0 0 1 .17-.57l13.9-10.52" vector-effect="non-scaling-stroke"/><path stroke="#fdde84" d="M236.78 241.59a4.4 4.4 0 0 0-4.4-4.4 4.4 4.4 0 0 0-4.4 4.4 4.4 4.4 0 0 0 4.4 4.4 4.4 4.4 0 0 0 4.4-4.4" vector-effect="non-scaling-stroke"/><path stroke="#f3a29b" d="M293.326 120.63a22.48 20.99 89.5 0 0 20.793-22.663 22.48 20.99 89.5 0 0-21.185-22.296 22.48 20.99 89.5 0 0-20.793 22.662 22.48 20.99 89.5 0 0 21.185 22.296" vector-effect="non-scaling-stroke"/><path stroke="#fdde84" d="M373.584 120.559A22.38 20.91 89.4 0 0 394.26 97.96a22.38 20.91 89.4 0 0-21.143-22.16 22.38 20.91 89.4 0 0-20.677 22.6 22.38 20.91 89.4 0 0 21.143 22.16" vector-effect="non-scaling-stroke"/><path stroke="#a1c3f9" d="M453.078 120.7a22.48 20.26 89.7 0 0 20.142-22.586 22.48 20.26 89.7 0 0-20.378-22.374A22.48 20.26 89.7 0 0 432.7 98.326a22.48 20.26 89.7 0 0 20.378 22.374" vector-effect="non-scaling-stroke"/><path stroke="#f3a29b" d="M540.24 83.23q-4.32 5.49-4.46 12.34a.99.99 0 0 0 1.37.94l31.1-12.68a1 .99 62.6 0 0 .46-1.46c-6.68-10.38-21.36-8.16-28.47.86" vector-effect="non-scaling-stroke"/><path stroke="#a7a6a7" d="M211.32 155.49q-2.25-2.54-4.58-2.63-3.22-.13-6.5-.08a1 1 0 0 0-.99 1v11.2a1 1 0 0 0 .95 1c7.03.4 13.85-.65 11.34-10.08q-.06-.23-.22-.41m25.23 8.4c-4.19-5.65-11.23-1.82-12.27 4.52a.99.99 0 0 0 .99 1.16l11.6-.1a1 1 0 0 0 .99-.95q.14-2.67-1.31-4.63m49.39.3q-1.35 1.73-1.54 4.27a1 .99-88.1 0 0 1 1.07l11.7-.04a1.01 1-4.2 0 0 .99-1.14q-.27-1.91-1.02-3.6c-2.11-4.68-8.28-4.22-11.13-.56" vector-effect="non-scaling-stroke"/><path stroke="#fdde84" d="M256.336 241.31a18.34 9.05 90.2 0 0 9.114-18.308 18.34 9.05 90.2 0 0-8.986-18.372 18.34 9.05 90.2 0 0-9.114 18.308 18.34 9.05 90.2 0 0 8.986 18.372" vector-effect="non-scaling-stroke"/></g><path fill="#fff" d="M0 0h750v260H0V0Zm198.8 135.1c33.47-.78 54.61-28.39 50.13-61.27a1 1 0 0 0-.99-.86l-50.94.02a1 1 0 0 0-1 1V87.5a1 1 0 0 0 1 1h35.43a1 1 0 0 1 .99 1.17q-3.86 22.51-25.68 28.34-13.29 3.55-25.73-.94c-38.69-13.97-35.49-71.15 5.05-80.09q19.84-4.38 36.67 9.39a1 .99 42.3 0 0 1.34-.06l9.35-9.35a1.01 1 44 0 0-.03-1.44q-14.78-13.77-34.21-15.17c-34.33-2.47-65.95 27.05-62.44 62.15 3.15 31.43 29.85 53.32 61.06 52.6ZM512.68 25.03a.27.27 0 0 0-.27-.27h-15.06a.27.27 0 0 0-.27.27v107.44a.27.27 0 0 0 .27.27h15.06a.27.27 0 0 0 .27-.27V25.03Zm-182.5 73.12a37.05 37.05 0 0 0-37.05-37.05 37.05 37.05 0 0 0-37.05 37.05 37.05 37.05 0 0 0 37.05 37.05 37.05 37.05 0 0 0 37.05-37.05Zm80.36.01a37.18 37.18 0 0 0-37.18-37.18 37.18 37.18 0 0 0-37.18 37.18 37.18 37.18 0 0 0 37.18 37.18 37.18 37.18 0 0 0 37.18-37.18Zm61.5 30.51q.22 6.25-.79 10.34c-4.85 19.65-29.31 19.38-37.35 2.6a1.01 1 65.4 0 0-1.29-.49l-12.24 5.14a1 .99-24.5 0 0-.51 1.36q5.24 10.6 14.98 16.11c9.68 5.48 22.37 6.02 32.58 1.69 13.31-5.64 19.6-19.06 19.78-33.17q.35-26.04.01-67.76a1 1 0 0 0-1-.99h-13.16a1 1 0 0 0-1 .98l-.05 3.24q-.03 2.24-1.68.72-6.86-6.32-16.39-7.13c-15.59-1.33-31.07 10.6-35.7 25.38-7.12 22.75 9.46 49.4 34.53 48.36q9.73-.4 17.64-7.11 1.57-1.33 1.64.73Zm67.49-19.75 47.53-19.66a1 1 0 0 0 .56-1.26q-3.19-8.88-8.35-15.02c-18.86-22.46-52.32-10.72-58.52 16.25-5.5 23.96 11.92 46.18 36.44 45.75q17.37-.3 29.42-15.17a1 .99-53.8 0 0-.22-1.46l-10.85-7.24a1 1 0 0 0-1.36.24q-8.62 11.72-22.67 8.89-8.4-1.69-12.49-9.95a1.01 1 65.6 0 1 .51-1.37Zm-339.31 59.62q1.96-.05 3.93-.06c7.28-.03 7.25 8.15 8.78 13.32a1 .99 84.7 0 0 .85.71l1.14.12a1 1 0 0 0 1.07-1.28q-1.37-4.59-1.56-5.6-.84-4.62-4.21-7.78a.99.99 0 0 1 .14-1.56q1.94-1.27 3.06-2.47 2.98-3.21 1.56-7.64c-2.32-7.23-11.89-6.44-17.95-5.77a1 .99 87.1 0 0-.89.99l.08 30.11a1 1 0 0 0 1.07 1l.94-.07a1.01 1-1.9 0 0 .93-.99l.09-12.04a1 .99 89.7 0 1 .97-.99Zm74.62-16.06a1.97 1.97 0 0 0-1.97-1.97 1.97 1.97 0 0 0-1.97 1.97 1.97 1.97 0 0 0 1.97 1.97 1.97 1.97 0 0 0 1.97-1.97Zm-44.78 28.21q-6.12-1.99-5.66-8.23a1.01 1-88.1 0 1 .99-.93l14.51-.04a1 1 0 0 0 .99-.99q.09-4.68-1.93-7.45-3.5-4.8-8.63-3.7c-13.04 2.79-12.73 23.93 2.61 23.56 1.24-.03 8.07-.26 6-2.33a1.01 1 61.8 0 0-.9-.28q-5.71 1.12-7.98.39Zm55.22-9.17 14.9-.03a1 .99-89.4 0 0 .99-.98q.12-5.3-2.95-8.47-3.53-3.64-8.06-2.67c-12.64 2.7-12.1 23.1 2.61 23.86q1.21.06 5.91-1.01a.98.98 0 0 0 .67-.52c.77-1.5-.82-1.53-1.78-1.32-6.17 1.36-13.46-.07-13.29-7.88a1.01 1 .3 0 1 1-.98Zm67.81 2.9c2.88 7.16-4.9 6.94-9.75 5.64a.64.63-64.5 0 0-.69.25c-1.85 2.64 11.73 5.46 13.69-2.76 1.65-6.93-6.67-6.4-9.79-10.05-1.84-2.16-.64-5.11 2.09-5.8q2.84-.71 5.72.48a.65.64 22.7 0 0 .84-.34l.13-.31a1 1 0 0 0-.56-1.32q-8.43-3.28-12.06 4.82a1.02 1.01 50.6 0 0-.06.62c.98 4.52 4.99 5.72 9.96 8.25a1 .99 2.7 0 1 .48.52Zm-98.3 4.65-6.37-18.65a1 1 0 0 0-.95-.68l-1.19.01a1 1 0 0 0-.93 1.36q3.86 9.9 7.57 19.88c1.26 3.4 3.81 1.69 4.76-.75q3.57-9.11 7.2-18.25c.68-1.73.36-3.1-1.92-2.16a.99.96-2.4 0 0-.56.59l-6.44 18.41a.64.62-2.5 0 1-.36.38l-.27.11a.41.41 0 0 1-.54-.25Zm19.96-19.01a.26.26 0 0 0-.26-.26h-2.98a.26.26 0 0 0-.26.26v22.18a.26.26 0 0 0 .26.26h2.98a.26.26 0 0 0 .26-.26v-22.18Zm47.66 4.82q.17.31.32.88 2.07 7.74 4.77 15.29c.58 1.64 1.75 2.26 3.32 1.29a.98.96 83.5 0 0 .43-.55l6.62-20.72a1.01 1.01 0 0 0-.92-1.31l-.83-.03a1 1 0 0 0-1 .74l-4.83 17.58q-.74 2.68-1.54.02-2.54-8.46-5.17-16.89-.76-2.44-2.92-1.14a.98.96 83.5 0 0-.43.55l-5.81 18.15a.65.64 12.3 0 1-.7.44c-.52-.08-4.73-16.79-5.3-18.71a1 1 0 0 0-.96-.72h-.89a1.01 1 81.8 0 0-.96 1.29l6.24 20.98a1 1 0 0 0 1.09.71l1.56-.21a1.02 1.02 0 0 0 .82-.68l5.63-16.82q.57-1.71 1.46-.14Zm-74.46 77.91c9.68 9.05 20.56-.85 22.52-11.05 1.98-10.26 1.76-30.09-12.23-31.53-20.35-2.1-20.73 32.83-10.29 42.58Zm-46.75-27.01 1.27-8.92a1 1 0 0 1 .99-.86h15.03a1 1 0 0 0 1-.97l.09-3.28a1.01 1 .8 0 0-1.01-1.03l-19.69.09a1 1 0 0 0-.98.87L195.32 221a1 1 0 0 0 1.19 1.11c22.75-4.44 22.19 21.63 4.38 18.48q-3.03-.54-6.08-1.47a.99.99 0 0 0-1.27.77l-.49 2.63a1.01 1 18.7 0 0 .54 1.08q12.05 5.97 21.41-1.68c8.52-6.95 6.63-21.34-4.5-24.19q-3.43-.88-8.29-.81a1.01 1 3.7 0 1-1.01-1.14Zm213.52 1.84a.5.5 0 0 1-.48-.35l-5.13-15.92a.5.5 0 0 0-.96 0l-5.13 15.92a.5.5 0 0 1-.48.35l-16.74-.04a.5.5 0 0 0-.29.91l13.56 9.81a.5.5 0 0 1 .18.56l-5.2 15.9a.5.5 0 0 0 .77.56l13.52-9.86a.5.5 0 0 1 .58 0l13.52 9.86a.5.5 0 0 0 .77-.56l-5.2-15.9a.5.5 0 0 1 .18-.56l13.56-9.81a.5.5 0 0 0-.29-.91l-16.74.04Zm19.15-.12a.37.37 0 0 0-.22.67l13.97 10.19a.37.37 0 0 1 .13.42l-5.52 16.34a.37.37 0 0 0 .57.42l14.08-10.34a.37.37 0 0 1 .44 0l13.78 10.27a.37.37 0 0 0 .58-.41l-5.24-16.31a.37.37 0 0 1 .13-.41l14.13-10.44a.37.37 0 0 1 .44 0l14.18 10.39a.37.37 0 0 1 .14.42l-5.38 16.35a.37.37 0 0 0 .57.41l13.86-10.12a.37.37 0 0 1 .43-.01l13.89 9.79a.37.37 0 0 0 .57-.41l-5.28-15.96a.37.37 0 0 1 .14-.42l13.48-9.89a.37.37 0 0 0-.21-.67l-16.89-.35a.37.37 0 0 1-.35-.26l-5.03-16.23a.37.37 0 0 0-.71-.01l-5.52 16.32a.37.37 0 0 1-.34.25l-35.61.12a.37.37 0 0 1-.35-.26l-5.34-16.44a.37.37 0 0 0-.7 0l-5.33 16.32a.37.37 0 0 1-.35.26h-17.14Zm-97.95.35a.51.51 0 0 1 .61 0l14.26 10.47a.51.51 0 0 1 .18.57l-5.36 15.81a.51.51 0 0 0 .79.58l13.57-10a.51.51 0 0 1 .6 0l13.45 9.89a.51.51 0 0 0 .79-.56l-5.04-15.9a.51.51 0 0 1 .18-.57l13.21-9.7a.51.51 0 0 0-.3-.92l-16.5-.03a.51.51 0 0 1-.48-.35l-5.12-15.91a.51.51 0 0 0-.97 0l-5.17 15.95a.51.51 0 0 1-.48.35l-35.69.01a.51.51 0 0 1-.48-.36l-5-15.85a.51.51 0 0 0-.97-.01l-5.34 15.82a.51.51 0 0 1-.49.35l-16.44.01a.51.51 0 0 0-.3.92l13.45 9.88a.51.51 0 0 1 .18.57l-5.31 15.75a.51.51 0 0 0 .79.57l13.49-9.86a.51.51 0 0 1 .6 0l13.65 9.9a.51.51 0 0 0 .78-.57l-5.21-15.72a.51.51 0 0 1 .17-.57l13.9-10.52Zm-99.14 23.74a4.4 4.4 0 0 0-4.4-4.4 4.4 4.4 0 0 0-4.4 4.4 4.4 4.4 0 0 0 4.4 4.4 4.4 4.4 0 0 0 4.4-4.4Z"/><path fill="#4386f3" d="M248.93 73.83c4.48 32.88-16.66 60.49-50.13 61.27-31.21.72-57.91-21.17-61.06-52.6-3.51-35.1 28.11-64.62 62.44-62.15q19.43 1.4 34.21 15.17a1.01 1 44 0 1 .03 1.44l-9.35 9.35a1 .99 42.3 0 1-1.34.06q-16.83-13.77-36.67-9.39c-40.54 8.94-43.74 66.12-5.05 80.09q12.44 4.49 25.73.94 21.82-5.83 25.68-28.34a1 1 0 0 0-.99-1.17H197a1 1 0 0 1-1-1V73.99a1 1 0 0 1 1-1l50.94-.02a1 1 0 0 1 .99.86Z"/><rect width="15.6" height="107.98" x="497.08" y="24.76" fill="#36a756" rx=".27"/><path fill="#e74437" d="M330.18 98.15a37.05 37.05 0 0 1-37.05 37.05 37.05 37.05 0 0 1-37.05-37.05 37.05 37.05 0 0 1 37.05-37.05 37.05 37.05 0 0 1 37.05 37.05Zm-36.854 22.48a22.48 20.99 89.5 0 0 20.793-22.663 22.48 20.99 89.5 0 0-21.185-22.296 22.48 20.99 89.5 0 0-20.793 22.662 22.48 20.99 89.5 0 0 21.185 22.296Z"/><path fill="#fabd09" d="M410.54 98.16a37.18 37.18 0 0 1-37.18 37.18 37.18 37.18 0 0 1-37.18-37.18 37.18 37.18 0 0 1 37.18-37.18 37.18 37.18 0 0 1 37.18 37.18Zm-36.956 22.399A22.38 20.91 89.4 0 0 394.26 97.96a22.38 20.91 89.4 0 0-21.143-22.16 22.38 20.91 89.4 0 0-20.677 22.6 22.38 20.91 89.4 0 0 21.143 22.16Z"/><path fill="#4386f3" d="M470.4 127.94q-7.91 6.71-17.64 7.11c-25.07 1.04-41.65-25.61-34.53-48.36 4.63-14.78 20.11-26.71 35.7-25.38q9.53.81 16.39 7.13 1.65 1.52 1.68-.72l.05-3.24a1 1 0 0 1 1-.98h13.16a1 1 0 0 1 1 .99q.34 41.72-.01 67.76c-.18 14.11-6.47 27.53-19.78 33.17-10.21 4.33-22.9 3.79-32.58-1.69q-9.74-5.51-14.98-16.11a1 .99-24.5 0 1 .51-1.36l12.24-5.14a1.01 1 65.4 0 1 1.29.49c8.04 16.78 32.5 17.05 37.35-2.6q1.01-4.09.79-10.34-.07-2.06-1.64-.73Zm-17.322-7.24a22.48 20.26 89.7 0 0 20.142-22.586 22.48 20.26 89.7 0 0-20.378-22.374A22.48 20.26 89.7 0 0 432.7 98.326a22.48 20.26 89.7 0 0 20.378 22.374Z"/><path fill="#e74437" d="M539.02 110.29q4.09 8.26 12.49 9.95 14.05 2.83 22.67-8.89a1 1 0 0 1 1.36-.24l10.85 7.24a1 .99-53.8 0 1 .22 1.46q-12.05 14.87-29.42 15.17c-24.52.43-41.94-21.79-36.44-45.75 6.2-26.97 39.66-38.71 58.52-16.25q5.16 6.14 8.35 15.02a1 1 0 0 1-.56 1.26l-47.53 19.66a1.01 1 65.6 0 0-.51 1.37Zm1.22-27.06q-4.32 5.49-4.46 12.34a.99.99 0 0 0 1.37.94l31.1-12.68a1 .99 62.6 0 0 .46-1.46c-6.68-10.38-21.36-8.16-28.47.86Z"/><path fill="#fff" d="M540.24 83.23c7.11-9.02 21.79-11.24 28.47-.86a1 .99 62.6 0 1-.46 1.46l-31.1 12.68a.99.99 0 0 1-1.37-.94q.14-6.85 4.46-12.34Z"/><ellipse fill="#fff" rx="22.48" ry="20.99" transform="rotate(89.5 97.06 196.925)"/><ellipse fill="#fff" rx="22.48" ry="20.26" transform="rotate(89.7 177.112 276.779)"/><ellipse fill="#fff" rx="22.38" ry="20.91" transform="rotate(89.4 137.068 237.73)"/><path fill="#4e4d4e" d="m199.25 169.53-.09 12.04a1.01 1-1.9 0 1-.93.99l-.94.07a1 1 0 0 1-1.07-1l-.08-30.11a1 .99 87.1 0 1 .89-.99c6.06-.67 15.63-1.46 17.95 5.77q1.42 4.43-1.56 7.64-1.12 1.2-3.06 2.47a.99.99 0 0 0-.14 1.56q3.37 3.16 4.21 7.78.19 1.01 1.56 5.6a1 1 0 0 1-1.07 1.28l-1.14-.12a1 .99 84.7 0 1-.85-.71c-1.53-5.17-1.5-13.35-8.78-13.32q-1.97.01-3.93.06a1 .99 89.7 0 0-.97.99Zm12.07-14.04q-2.25-2.54-4.58-2.63-3.22-.13-6.5-.08a1 1 0 0 0-.99 1v11.2a1 1 0 0 0 .95 1c7.03.4 13.85-.65 11.34-10.08q-.06-.23-.22-.41Z"/><circle cx="272.87" cy="152.48" r="1.97" fill="#4e4d4e"/><path fill="#fff" d="M211.32 155.49q.16.18.22.41c2.51 9.43-4.31 10.48-11.34 10.08a1 1 0 0 1-.95-1v-11.2a1 1 0 0 1 .99-1q3.28-.05 6.5.08 2.33.09 4.58 2.63Z"/><path fill="#4e4d4e" d="M230.06 180.69q2.27.73 7.98-.39a1.01 1 61.8 0 1 .9.28c2.07 2.07-4.76 2.3-6 2.33-15.34.37-15.65-20.77-2.61-23.56q5.13-1.1 8.63 3.7 2.02 2.77 1.93 7.45a1 1 0 0 1-.99.99l-14.51.04a1.01 1-88.1 0 0-.99.93q-.46 6.24 5.66 8.23Zm6.49-16.8c-4.19-5.65-11.23-1.82-12.27 4.52a.99.99 0 0 0 .99 1.16l11.6-.1a1 1 0 0 0 .99-.95q.14-2.67-1.31-4.63Zm47.73 8.61c-.17 7.81 7.12 9.24 13.29 7.88.96-.21 2.55-.18 1.78 1.32a.98.98 0 0 1-.67.52q-4.7 1.07-5.91 1.01c-14.71-.76-15.25-21.16-2.61-23.86q4.53-.97 8.06 2.67 3.07 3.17 2.95 8.47a1 .99-89.4 0 1-.99.98l-14.9.03a1.01 1 .3 0 0-1 .98Zm1.66-8.31q-1.35 1.73-1.54 4.27a1 .99-88.1 0 0 1 1.07l11.7-.04a1.01 1-4.2 0 0 .99-1.14q-.27-1.91-1.02-3.6c-2.11-4.68-8.28-4.22-11.13-.56Zm66.67 9.71c-4.97-2.53-8.98-3.73-9.96-8.25a1.02 1.01 50.6 0 1 .06-.62q3.63-8.1 12.06-4.82a1 1 0 0 1 .56 1.32l-.13.31a.65.64 22.7 0 1-.84.34q-2.88-1.19-5.72-.48c-2.73.69-3.93 3.64-2.09 5.8 3.12 3.65 11.44 3.12 9.79 10.05-1.96 8.22-15.54 5.4-13.69 2.76a.64.63-64.5 0 1 .69-.25c4.85 1.3 12.63 1.52 9.75-5.64a1 .99 2.7 0 0-.48-.52Zm-97.28 5.42.27-.11a.64.62-2.5 0 0 .36-.38l6.44-18.41a.99.96-2.4 0 1 .56-.59c2.28-.94 2.6.43 1.92 2.16q-3.63 9.14-7.2 18.25c-.95 2.44-3.5 4.15-4.76.75q-3.71-9.98-7.57-19.88a1 1 0 0 1 .93-1.36l1.19-.01a1 1 0 0 1 .95.68l6.37 18.65a.41.41 0 0 0 .54.25Z"/><rect width="3.5" height="22.7" x="271.25" y="159.8" fill="#4e4d4e" rx=".26"/><path fill="#4e4d4e" d="M322.41 164.88q-.89-1.57-1.46.14l-5.63 16.82a1.02 1.02 0 0 1-.82.68l-1.56.21a1 1 0 0 1-1.09-.71l-6.24-20.98a1.01 1 81.8 0 1 .96-1.29h.89a1 1 0 0 1 .96.72c.57 1.92 4.78 18.63 5.3 18.71a.65.64 12.3 0 0 .7-.44l5.81-18.15a.98.96 83.5 0 1 .43-.55q2.16-1.3 2.92 1.14 2.63 8.43 5.17 16.89.8 2.66 1.54-.02l4.83-17.58a1 1 0 0 1 1-.74l.83.03a1.01 1.01 0 0 1 .92 1.31l-6.62 20.72a.98.96 83.5 0 1-.43.55c-1.57.97-2.74.35-3.32-1.29q-2.7-7.55-4.77-15.29-.15-.57-.32-.88Z"/><path fill="#fff" d="M236.55 163.89q1.45 1.96 1.31 4.63a1 1 0 0 1-.99.95l-11.6.1a.99.99 0 0 1-.99-1.16c1.04-6.34 8.08-10.17 12.27-4.52Zm49.39.3c2.85-3.66 9.02-4.12 11.13.56q.75 1.69 1.02 3.6a1.01 1-4.2 0 1-.99 1.14l-11.7.04a1 .99-88.1 0 1-1-1.07q.19-2.54 1.54-4.27Z"/><path fill="#fabd09" d="M247.95 242.79c-10.44-9.75-10.06-44.68 10.29-42.58 13.99 1.44 14.21 21.27 12.23 31.53-1.96 10.2-12.84 20.1-22.52 11.05Zm8.386-1.48a18.34 9.05 90.2 0 0 9.114-18.308 18.34 9.05 90.2 0 0-8.986-18.372 18.34 9.05 90.2 0 0-9.114 18.308 18.34 9.05 90.2 0 0 8.986 18.372Zm-54.126-24.39q4.86-.07 8.29.81c11.13 2.85 13.02 17.24 4.5 24.19q-9.36 7.65-21.41 1.68a1.01 1 18.7 0 1-.54-1.08l.49-2.63a.99.99 0 0 1 1.27-.77q3.05.93 6.08 1.47c17.81 3.15 18.37-22.92-4.38-18.48a1 1 0 0 1-1.19-1.11l2.58-19.32a1 1 0 0 1 .98-.87l19.69-.09a1.01 1 .8 0 1 1.01 1.03l-.09 3.28a1 1 0 0 1-1 .97h-15.03a1 1 0 0 0-.99.86l-1.27 8.92a1.01 1 3.7 0 0 1.01 1.14Z"/><path fill="#f8d40c" d="m414.72 217.62 16.74-.04a.5.5 0 0 1 .29.91l-13.56 9.81a.5.5 0 0 0-.18.56l5.2 15.9a.5.5 0 0 1-.77.56l-13.52-9.86a.5.5 0 0 0-.58 0l-13.52 9.86a.5.5 0 0 1-.77-.56l5.2-15.9a.5.5 0 0 0-.18-.56l-13.56-9.81a.5.5 0 0 1 .29-.91l16.74.04a.5.5 0 0 0 .48-.35l5.13-15.92a.5.5 0 0 1 .96 0l5.13 15.92a.5.5 0 0 0 .48.35Zm19.15-.12h17.14a.37.37 0 0 0 .35-.26l5.33-16.32a.37.37 0 0 1 .7 0l5.34 16.44a.37.37 0 0 0 .35.26l35.61-.12a.37.37 0 0 0 .34-.25l5.52-16.32a.37.37 0 0 1 .71.01l5.03 16.23a.37.37 0 0 0 .35.26l16.89.35a.37.37 0 0 1 .21.67l-13.48 9.89a.37.37 0 0 0-.14.42l5.28 15.96a.37.37 0 0 1-.57.41l-13.89-9.79a.37.37 0 0 0-.43.01l-13.86 10.12a.37.37 0 0 1-.57-.41l5.38-16.35a.37.37 0 0 0-.14-.42l-14.18-10.39a.37.37 0 0 0-.44 0l-14.13 10.44a.37.37 0 0 0-.13.41l5.24 16.31a.37.37 0 0 1-.58.41l-13.78-10.27a.37.37 0 0 0-.44 0l-14.08 10.34a.37.37 0 0 1-.57-.42l5.52-16.34a.37.37 0 0 0-.13-.42l-13.97-10.19a.37.37 0 0 1 .22-.67Zm-97.95.35-13.9 10.52a.51.51 0 0 0-.17.57l5.21 15.72a.51.51 0 0 1-.78.57l-13.65-9.9a.51.51 0 0 0-.6 0l-13.49 9.86a.51.51 0 0 1-.79-.57l5.31-15.75a.51.51 0 0 0-.18-.57l-13.45-9.88a.51.51 0 0 1 .3-.92l16.44-.01a.51.51 0 0 0 .49-.35l5.34-15.82a.51.51 0 0 1 .97.01l5 15.85a.51.51 0 0 0 .48.36l35.69-.01a.51.51 0 0 0 .48-.35l5.17-15.95a.51.51 0 0 1 .97 0l5.12 15.91a.51.51 0 0 0 .48.35l16.5.03a.51.51 0 0 1 .3.92l-13.21 9.7a.51.51 0 0 0-.18.57l5.04 15.9a.51.51 0 0 1-.79.56l-13.45-9.89a.51.51 0 0 0-.6 0l-13.57 10a.51.51 0 0 1-.79-.58l5.36-15.81a.51.51 0 0 0-.18-.57l-14.26-10.47a.51.51 0 0 0-.61 0Z"/><ellipse fill="#fff" rx="18.34" ry="9.05" transform="rotate(90.2 17.103 239.238)"/><circle cx="232.38" cy="241.59" r="4.4" fill="#fabd09"/></svg>