<svg xmlns="http://www.w3.org/2000/svg" xmlns:xlink="http://www.w3.org/1999/xlink" width="300" zoomAndPan="magnify" viewBox="0 0 224.87999 74.999997" height="100" preserveAspectRatio="xMidYMid meet" version="1.0"><defs><clipPath id="6aafad6552"><path d="M 0 0.0195312 L 224.761719 0.0195312 L 224.761719 74.980469 L 0 74.980469 Z M 0 0.0195312 " clip-rule="nonzero"/></clipPath><clipPath id="c9f0e9e86b"><path d="M 7.496094 37.5 L 167.160156 37.5 L 167.160156 67.484375 L 7.496094 67.484375 Z M 7.496094 37.5 " clip-rule="nonzero"/></clipPath><clipPath id="18bca477f8"><path d="M 42 14 L 141.675781 14 L 141.675781 35.820312 L 42 35.820312 Z M 42 14 " clip-rule="nonzero"/></clipPath><clipPath id="4a6912af19"><path d="M 7.496094 2.835938 L 40 2.835938 L 40 34 L 7.496094 34 Z M 7.496094 2.835938 " clip-rule="nonzero"/></clipPath></defs><g clip-path="url(#6aafad6552)"><path fill="#ffffff" d="M 0 0.0195312 L 224.878906 0.0195312 L 224.878906 74.980469 L 0 74.980469 Z M 0 0.0195312 " fill-opacity="1" fill-rule="nonzero"/><path fill="#ffffff" d="M 0 0.0195312 L 224.878906 0.0195312 L 224.878906 74.980469 L 0 74.980469 Z M 0 0.0195312 " fill-opacity="1" fill-rule="nonzero"/></g><g clip-path="url(#c9f0e9e86b)"><path fill="#00b67a" d="M 7.496094 37.5 L 37.433594 37.5 L 37.433594 67.484375 L 7.496094 67.484375 Z M 39.929688 37.5 L 69.863281 37.5 L 69.863281 67.484375 L 39.929688 67.484375 Z M 72.359375 37.5 L 102.296875 37.5 L 102.296875 67.484375 L 72.359375 67.484375 Z M 104.792969 37.5 L 134.730469 37.5 L 134.730469 67.484375 L 104.792969 67.484375 Z M 137.222656 37.5 L 167.160156 37.5 L 167.160156 67.484375 L 137.222656 67.484375 Z M 137.222656 37.5 " fill-opacity="1" fill-rule="nonzero"/></g><path fill="#ffffff" d="M 22.464844 57.707031 L 27.015625 56.550781 L 28.917969 62.425781 Z M 32.941406 50.117188 L 24.929688 50.117188 L 22.464844 42.558594 L 20 50.117188 L 11.988281 50.117188 L 18.472656 54.804688 L 16.007812 62.363281 L 22.496094 57.675781 L 26.488281 54.804688 Z M 54.894531 57.707031 L 59.449219 56.550781 L 61.351562 62.425781 Z M 65.375 50.117188 L 57.359375 50.117188 L 54.894531 42.558594 L 52.433594 50.117188 L 44.417969 50.117188 L 50.90625 54.804688 L 48.441406 62.363281 L 54.925781 57.675781 L 58.917969 54.804688 Z M 87.328125 57.707031 L 91.882812 56.550781 L 93.785156 62.425781 Z M 97.804688 50.117188 L 89.792969 50.117188 L 87.328125 42.558594 L 84.863281 50.117188 L 76.851562 50.117188 L 83.335938 54.804688 L 80.875 62.363281 L 87.359375 57.675781 L 91.351562 54.804688 Z M 119.761719 57.707031 L 124.3125 56.550781 L 126.214844 62.425781 Z M 130.238281 50.117188 L 122.222656 50.117188 L 119.761719 42.558594 L 117.296875 50.117188 L 109.28125 50.117188 L 115.769531 54.804688 L 113.304688 62.363281 L 119.792969 57.675781 L 123.78125 54.804688 Z M 152.191406 57.707031 L 156.746094 56.550781 L 158.648438 62.425781 Z M 162.671875 50.117188 L 154.65625 50.117188 L 152.191406 42.558594 L 149.730469 50.117188 L 141.714844 50.117188 L 148.199219 54.804688 L 145.738281 62.363281 L 152.222656 57.675781 L 156.214844 54.804688 Z M 162.671875 50.117188 " fill-opacity="1" fill-rule="nonzero"/><g clip-path="url(#18bca477f8)"><path fill="#000000" d="M 42.835938 14.527344 L 56.378906 14.527344 L 56.378906 17.054688 L 51.046875 17.054688 L 51.046875 31.320312 L 48.125 31.320312 L 48.125 17.054688 L 42.816406 17.054688 Z M 55.800781 19.160156 L 58.296875 19.160156 L 58.296875 21.511719 L 58.34375 21.511719 C 58.433594 21.175781 58.589844 20.863281 58.8125 20.550781 C 59.035156 20.234375 59.300781 19.945312 59.636719 19.699219 C 59.949219 19.429688 60.304688 19.226562 60.707031 19.070312 C 61.085938 18.914062 61.488281 18.824219 61.890625 18.824219 C 62.203125 18.824219 62.425781 18.847656 62.539062 18.847656 C 62.648438 18.871094 62.78125 18.890625 62.894531 18.890625 L 62.894531 21.46875 C 62.714844 21.421875 62.515625 21.398438 62.3125 21.378906 C 62.113281 21.355469 61.933594 21.332031 61.734375 21.332031 C 61.289062 21.332031 60.863281 21.421875 60.460938 21.601562 C 60.0625 21.78125 59.726562 22.050781 59.414062 22.386719 C 59.125 22.742188 58.878906 23.167969 58.699219 23.683594 C 58.519531 24.199219 58.433594 24.804688 58.433594 25.476562 L 58.433594 31.253906 L 55.753906 31.253906 Z M 75.164062 31.320312 L 72.53125 31.320312 L 72.53125 29.617188 L 72.488281 29.617188 C 72.152344 30.246094 71.664062 30.714844 71.015625 31.09375 C 70.367188 31.476562 69.699219 31.65625 69.03125 31.65625 C 67.445312 31.65625 66.285156 31.273438 65.570312 30.46875 C 64.859375 29.683594 64.5 28.476562 64.5 26.886719 L 64.5 19.160156 L 67.179688 19.160156 L 67.179688 26.617188 C 67.179688 27.691406 67.378906 28.453125 67.800781 28.878906 C 68.203125 29.328125 68.785156 29.550781 69.519531 29.550781 C 70.078125 29.550781 70.546875 29.460938 70.925781 29.28125 C 71.304688 29.101562 71.617188 28.878906 71.839844 28.585938 C 72.085938 28.296875 72.242188 27.9375 72.355469 27.535156 C 72.464844 27.132812 72.511719 26.683594 72.511719 26.214844 L 72.511719 19.160156 L 75.1875 19.160156 L 75.1875 31.320312 Z M 79.714844 27.421875 C 79.804688 28.207031 80.097656 28.746094 80.609375 29.082031 C 81.121094 29.394531 81.746094 29.550781 82.460938 29.550781 C 82.707031 29.550781 82.996094 29.527344 83.308594 29.484375 C 83.621094 29.4375 83.933594 29.371094 84.199219 29.257812 C 84.492188 29.148438 84.714844 28.992188 84.894531 28.765625 C 85.070312 28.542969 85.160156 28.273438 85.136719 27.9375 C 85.117188 27.601562 85.003906 27.3125 84.757812 27.085938 C 84.511719 26.863281 84.222656 26.707031 83.867188 26.550781 C 83.507812 26.414062 83.085938 26.304688 82.617188 26.214844 C 82.148438 26.125 81.679688 26.011719 81.1875 25.902344 C 80.699219 25.789062 80.207031 25.65625 79.738281 25.496094 C 79.269531 25.339844 78.867188 25.140625 78.488281 24.847656 C 78.132812 24.578125 77.820312 24.242188 77.621094 23.816406 C 77.394531 23.394531 77.285156 22.898438 77.285156 22.273438 C 77.285156 21.601562 77.441406 21.0625 77.777344 20.617188 C 78.089844 20.167969 78.511719 19.808594 79.003906 19.542969 C 79.492188 19.273438 80.050781 19.070312 80.652344 18.960938 C 81.257812 18.847656 81.835938 18.800781 82.371094 18.800781 C 82.996094 18.800781 83.597656 18.871094 84.15625 19.003906 C 84.714844 19.136719 85.25 19.339844 85.695312 19.652344 C 86.164062 19.945312 86.542969 20.347656 86.832031 20.816406 C 87.144531 21.289062 87.324219 21.871094 87.414062 22.542969 L 84.625 22.542969 C 84.492188 21.894531 84.199219 21.46875 83.753906 21.242188 C 83.285156 21.019531 82.773438 20.90625 82.171875 20.90625 C 81.992188 20.90625 81.746094 20.929688 81.5 20.953125 C 81.234375 20.996094 81.011719 21.042969 80.765625 21.132812 C 80.542969 21.222656 80.339844 21.355469 80.183594 21.511719 C 80.027344 21.667969 79.941406 21.894531 79.941406 22.160156 C 79.941406 22.496094 80.050781 22.742188 80.273438 22.945312 C 80.496094 23.148438 80.789062 23.304688 81.167969 23.460938 C 81.523438 23.59375 81.949219 23.707031 82.417969 23.796875 C 82.886719 23.886719 83.375 23.996094 83.867188 24.109375 C 84.355469 24.222656 84.824219 24.355469 85.292969 24.511719 C 85.761719 24.667969 86.1875 24.871094 86.542969 25.160156 C 86.902344 25.429688 87.214844 25.765625 87.4375 26.167969 C 87.660156 26.574219 87.769531 27.085938 87.769531 27.667969 C 87.769531 28.386719 87.613281 28.992188 87.28125 29.503906 C 86.945312 30 86.519531 30.421875 86.007812 30.738281 C 85.496094 31.050781 84.894531 31.273438 84.269531 31.429688 C 83.621094 31.566406 82.996094 31.65625 82.371094 31.65625 C 81.613281 31.65625 80.898438 31.566406 80.253906 31.386719 C 79.605469 31.207031 79.023438 30.9375 78.554688 30.601562 C 78.089844 30.246094 77.707031 29.820312 77.441406 29.28125 C 77.171875 28.765625 77.015625 28.140625 76.996094 27.402344 L 79.695312 27.402344 L 79.695312 27.421875 Z M 88.53125 19.160156 L 90.558594 19.160156 L 90.558594 15.488281 L 93.238281 15.488281 L 93.238281 19.136719 L 95.648438 19.136719 L 95.648438 21.132812 L 93.238281 21.132812 L 93.238281 27.625 C 93.238281 27.914062 93.257812 28.140625 93.28125 28.363281 C 93.304688 28.566406 93.371094 28.746094 93.4375 28.878906 C 93.527344 29.011719 93.660156 29.125 93.816406 29.191406 C 93.996094 29.257812 94.21875 29.304688 94.53125 29.304688 C 94.710938 29.304688 94.910156 29.304688 95.089844 29.28125 C 95.265625 29.257812 95.46875 29.238281 95.648438 29.191406 L 95.648438 31.273438 C 95.355469 31.320312 95.066406 31.339844 94.777344 31.363281 C 94.488281 31.410156 94.21875 31.410156 93.90625 31.410156 C 93.191406 31.410156 92.632812 31.339844 92.210938 31.207031 C 91.785156 31.074219 91.453125 30.871094 91.207031 30.625 C 90.960938 30.355469 90.804688 30.042969 90.714844 29.664062 C 90.625 29.28125 90.582031 28.8125 90.558594 28.320312 L 90.558594 21.152344 L 88.53125 21.152344 L 88.53125 19.117188 Z M 97.519531 19.160156 L 100.042969 19.160156 L 100.042969 20.816406 L 100.085938 20.816406 C 100.464844 20.101562 100.980469 19.609375 101.648438 19.296875 C 102.316406 18.980469 103.03125 18.824219 103.835938 18.824219 C 104.792969 18.824219 105.621094 18.980469 106.332031 19.339844 C 107.046875 19.675781 107.628906 20.125 108.097656 20.726562 C 108.566406 21.308594 108.921875 22.003906 109.144531 22.789062 C 109.367188 23.570312 109.5 24.421875 109.5 25.296875 C 109.5 26.125 109.390625 26.910156 109.1875 27.667969 C 108.964844 28.429688 108.652344 29.125 108.230469 29.707031 C 107.804688 30.289062 107.269531 30.757812 106.601562 31.117188 C 105.933594 31.476562 105.171875 31.65625 104.28125 31.65625 C 103.902344 31.65625 103.5 31.609375 103.121094 31.542969 C 102.742188 31.476562 102.363281 31.363281 102.003906 31.207031 C 101.648438 31.050781 101.3125 30.847656 101.023438 30.601562 C 100.710938 30.355469 100.464844 30.066406 100.265625 29.75 L 100.21875 29.75 L 100.21875 35.820312 L 97.542969 35.820312 L 97.542969 19.160156 Z M 106.867188 25.25 C 106.867188 24.714844 106.800781 24.175781 106.644531 23.660156 C 106.511719 23.148438 106.289062 22.699219 106 22.296875 C 105.707031 21.894531 105.351562 21.578125 104.949219 21.332031 C 104.527344 21.085938 104.035156 20.972656 103.5 20.972656 C 102.382812 20.972656 101.535156 21.355469 100.957031 22.140625 C 100.398438 22.921875 100.109375 23.976562 100.109375 25.273438 C 100.109375 25.902344 100.175781 26.460938 100.332031 26.976562 C 100.488281 27.492188 100.6875 27.9375 101 28.320312 C 101.292969 28.699219 101.648438 28.992188 102.070312 29.214844 C 102.496094 29.4375 102.964844 29.550781 103.523438 29.550781 C 104.148438 29.550781 104.636719 29.417969 105.0625 29.167969 C 105.484375 28.921875 105.820312 28.585938 106.109375 28.207031 C 106.378906 27.804688 106.578125 27.355469 106.691406 26.839844 C 106.800781 26.304688 106.867188 25.789062 106.867188 25.25 Z M 111.578125 14.527344 L 114.253906 14.527344 L 114.253906 17.054688 L 111.578125 17.054688 Z M 111.578125 19.160156 L 114.253906 19.160156 L 114.253906 31.320312 L 111.578125 31.320312 Z M 116.640625 14.527344 L 119.320312 14.527344 L 119.320312 31.320312 L 116.640625 31.320312 Z M 127.484375 31.65625 C 126.523438 31.65625 125.65625 31.5 124.894531 31.164062 C 124.136719 30.828125 123.511719 30.402344 122.976562 29.839844 C 122.464844 29.28125 122.0625 28.585938 121.792969 27.804688 C 121.527344 27.019531 121.371094 26.148438 121.371094 25.230469 C 121.371094 24.3125 121.503906 23.460938 121.792969 22.675781 C 122.0625 21.894531 122.464844 21.222656 122.976562 20.640625 C 123.492188 20.078125 124.136719 19.632812 124.894531 19.316406 C 125.65625 19.003906 126.523438 18.824219 127.484375 18.824219 C 128.445312 18.824219 129.3125 18.980469 130.070312 19.316406 C 130.832031 19.632812 131.457031 20.078125 131.992188 20.640625 C 132.503906 21.199219 132.90625 21.894531 133.171875 22.675781 C 133.441406 23.460938 133.597656 24.3125 133.597656 25.230469 C 133.597656 26.167969 133.464844 27.019531 133.171875 27.804688 C 132.882812 28.585938 132.503906 29.257812 131.992188 29.839844 C 131.476562 30.402344 130.832031 30.847656 130.070312 31.164062 C 129.3125 31.476562 128.464844 31.65625 127.484375 31.65625 Z M 127.484375 29.527344 C 128.0625 29.527344 128.601562 29.394531 129.023438 29.148438 C 129.46875 28.902344 129.804688 28.566406 130.09375 28.164062 C 130.382812 27.757812 130.585938 27.289062 130.71875 26.796875 C 130.851562 26.28125 130.921875 25.765625 130.921875 25.230469 C 130.921875 24.714844 130.851562 24.199219 130.71875 23.683594 C 130.585938 23.167969 130.382812 22.722656 130.09375 22.316406 C 129.804688 21.914062 129.449219 21.601562 129.023438 21.355469 C 128.578125 21.109375 128.0625 20.972656 127.484375 20.972656 C 126.902344 20.972656 126.367188 21.109375 125.945312 21.355469 C 125.5 21.601562 125.164062 21.9375 124.875 22.316406 C 124.582031 22.722656 124.382812 23.167969 124.25 23.683594 C 124.113281 24.199219 124.046875 24.714844 124.046875 25.230469 C 124.046875 25.765625 124.113281 26.28125 124.25 26.796875 C 124.382812 27.3125 124.582031 27.757812 124.875 28.164062 C 125.164062 28.566406 125.519531 28.902344 125.945312 29.148438 C 126.390625 29.417969 126.902344 29.527344 127.484375 29.527344 Z M 134.402344 19.160156 L 136.429688 19.160156 L 136.429688 15.488281 L 139.109375 15.488281 L 139.109375 19.136719 L 141.519531 19.136719 L 141.519531 21.132812 L 139.109375 21.132812 L 139.109375 27.625 C 139.109375 27.914062 139.128906 28.140625 139.152344 28.363281 C 139.175781 28.566406 139.242188 28.746094 139.308594 28.878906 C 139.398438 29.011719 139.53125 29.125 139.6875 29.191406 C 139.867188 29.257812 140.089844 29.304688 140.402344 29.304688 C 140.582031 29.304688 140.78125 29.304688 140.960938 29.28125 C 141.136719 29.257812 141.339844 29.238281 141.519531 29.191406 L 141.519531 31.273438 C 141.226562 31.320312 140.9375 31.339844 140.648438 31.363281 C 140.359375 31.410156 140.089844 31.410156 139.777344 31.410156 C 139.0625 31.410156 138.503906 31.339844 138.082031 31.207031 C 137.65625 31.074219 137.324219 30.871094 137.078125 30.625 C 136.832031 30.355469 136.675781 30.042969 136.585938 29.664062 C 136.496094 29.28125 136.453125 28.8125 136.429688 28.320312 L 136.429688 21.152344 L 134.402344 21.152344 L 134.402344 19.117188 Z M 134.402344 19.160156 " fill-opacity="1" fill-rule="nonzero"/></g><g clip-path="url(#4a6912af19)"><path fill="#00b67a" d="M 39.714844 14.527344 L 27.464844 14.527344 L 23.695312 2.835938 L 19.902344 14.527344 L 7.652344 14.503906 L 17.558594 21.734375 L 13.765625 33.425781 L 23.671875 26.191406 L 33.578125 33.425781 L 29.808594 21.734375 Z M 39.714844 14.527344 " fill-opacity="1" fill-rule="nonzero"/></g><path fill="#005128" d="M 30.65625 24.378906 L 29.808594 21.734375 L 23.695312 26.191406 Z M 30.65625 24.378906 " fill-opacity="1" fill-rule="nonzero"/></svg>